<svg xmlns="http://www.w3.org/2000/svg" width="29" height="25" viewBox="0 0 29 25" fill="none">
  <path d="M10.3778 15.3961C10.7641 16.3752 10.8487 17.2877 9.78161 17.9396L9.86442 18.0175H10.1903C15.2564 18.0175 20.3226 18.0175 25.3887 18.0199C25.5638 18.0199 25.7471 18.0253 25.9127 18.0746C26.3611 18.2091 26.6089 18.6338 26.5498 19.118C26.4971 19.5475 26.1351 19.8871 25.6903 19.9211C25.5922 19.9288 25.4934 19.9264 25.3946 19.9264C19.53 19.9258 13.6659 19.9228 7.8013 19.9276C7.34645 19.9276 6.98091 19.8057 6.78276 19.3708C6.57928 18.9241 6.72479 18.5517 7.0442 18.2091C7.54992 17.6672 8.04677 17.1164 8.5312 16.5548C8.61046 16.4632 8.65778 16.2871 8.63176 16.1694C7.60552 11.5087 6.56745 6.85048 5.53885 2.19045C5.48976 1.96798 5.39394 1.91325 5.18218 1.91444C3.80224 1.92277 2.42229 1.92277 1.04234 1.91623C0.288783 1.91266 -0.184409 1.28212 0.0687486 0.625409C0.223128 0.224483 0.531886 0.00736346 0.956576 0.00557892C2.72099 -0.00155924 4.48482 -0.00215409 6.24923 0.00557892C6.70823 0.00795831 7.04893 0.305977 7.15599 0.756871C7.25417 1.17029 7.34408 1.58549 7.44345 2.02508C7.5724 2.02508 7.68892 2.02508 7.80544 2.02508C14.2219 2.02508 20.6384 2.02508 27.0543 2.02508C27.9392 2.02508 28.261 2.35166 28.261 3.24809C28.261 6.2021 28.261 9.15611 28.261 12.1095C28.261 12.8602 27.9989 13.1713 27.2501 13.2653C24.269 13.6407 21.2867 14.0095 18.305 14.3806C15.7237 14.7013 13.1431 15.0213 10.5618 15.3425C10.5239 15.3473 10.4879 15.3633 10.3784 15.3949L10.3778 15.3961Z" fill="white"></path>
  <path d="M7.60889 22.653C7.60711 21.347 8.65288 20.2941 9.95773 20.2899C11.2608 20.2858 12.3179 21.3375 12.319 22.6394C12.3202 23.9478 11.278 24.9959 9.9708 25.0001C8.66477 25.0042 7.61067 23.9567 7.60889 22.653Z" fill="white"></path>
  <path d="M20.6524 22.6518C20.6476 21.352 21.7022 20.2911 23.0015 20.2899C24.3032 20.2887 25.3601 21.3414 25.3625 22.6411C25.3643 23.9451 24.3163 24.9971 23.0128 25.0001C21.7075 25.003 20.6577 23.9587 20.653 22.6518H20.6524Z" fill="white"></path>
</svg>
                    