<svg xmlns="http://www.w3.org/2000/svg" width="30" height="30" viewBox="0 0 30 30" fill="none">
    <path d="M0.971658 14.9212C1.01552 7.04192 7.43922 0.690963 15.3193 0.735894C23.1975 0.781181 29.5485 7.20916 29.5 15.0878C29.4511 22.9671 23.021 29.3166 15.1435 29.2638C7.26984 29.2114 0.928153 22.7934 0.971658 14.9212ZM15.3542 27.7469C15.7097 27.7201 16.2571 27.702 16.798 27.6349C19.5759 27.2897 21.9765 26.1383 24.0177 24.2269C24.1175 24.1335 24.1246 24.0622 24.0719 23.9388C22.367 19.9457 18.2023 17.5365 13.8961 18.1491C10.3661 18.6512 7.85037 20.5904 6.31238 23.8044C6.23785 23.9602 6.26602 24.0501 6.38691 24.1642C8.84991 26.4931 11.7786 27.6724 15.3538 27.7469H15.3542ZM15.295 6.33871C12.4879 6.31839 10.1811 8.58776 10.1604 11.3909C10.1397 14.2009 12.4055 16.5077 15.2084 16.5298C18.0194 16.5519 20.3283 14.2879 20.3519 11.4865C20.3754 8.66728 18.1082 6.35904 15.2954 6.33836L15.295 6.33871Z" fill="white"></path>
</svg>